<svg xmlns="http://www.w3.org/2000/svg" version="1.1" xmlns:xlink="http://www.w3.org/1999/xlink" xmlns:svgjs="http://svgjs.com/svgjs" width="512" height="512" x="0" y="0" viewBox="0 0 514.11 514.11" style="enable-background:new 0 0 512 512" xml:space="preserve" class=""><g><g xmlns="http://www.w3.org/2000/svg" id="_x33_8_Global_networking"><g><g><path d="m103.955 263.804c2.944 0 5.332-2.387 5.332-5.332 0-2.944-2.387-5.332-5.332-5.332h-60.994c-2.395-9.454-10.905-16.498-21.094-16.498-12.038 0-21.829 9.791-21.829 21.829s9.791 21.829 21.829 21.829c10.189 0 18.698-7.044 21.094-16.498h60.994zm-82.087 5.834c-6.157 0-11.166-5.009-11.166-11.166s5.009-11.166 11.166-11.166 11.166 5.009 11.166 11.166-5.009 11.166-11.166 11.166z" fill="#2c9693" data-original="#000000" class=""></path><path d="m404.29 230.694h4.905c19.786 0 35.88-16.073 35.88-35.83v-19.842c9.442-2.402 16.479-10.906 16.479-21.088 0-12.038-9.794-21.829-21.827-21.829-12.038 0-21.832 9.791-21.832 21.829 0 10.194 7.053 18.708 16.516 21.098v19.832c0 13.876-11.314 25.167-25.216 25.167h-4.905c-2.947 0-5.332 2.387-5.332 5.332s2.385 5.331 5.332 5.331zm24.269-76.761c0-6.157 5.009-11.166 11.168-11.166 6.154 0 11.163 5.009 11.163 11.166s-5.009 11.166-11.163 11.166c-6.159 0-11.168-5.009-11.168-11.166z" fill="#2c9693" data-original="#000000" class=""></path><path d="m107.633 220.031h-4.907c-13.905 0-25.219-11.291-25.219-25.167v-19.83c9.465-2.388 16.518-10.904 16.518-21.1 0-12.038-9.791-21.829-21.829-21.829s-21.829 9.791-21.829 21.829c0 10.181 7.034 18.684 16.477 21.087v19.843c0 19.757 16.097 35.83 35.882 35.83h4.907c2.944 0 5.332-2.387 5.332-5.332s-2.387-5.331-5.332-5.331zm-46.603-66.098c0-6.157 5.009-11.166 11.166-11.166s11.166 5.009 11.166 11.166-5.009 11.166-11.166 11.166-11.166-5.009-11.166-11.166z" fill="#2c9693" data-original="#000000" class=""></path><path d="m107.633 286.25h-4.907c-19.786 0-35.882 16.073-35.882 35.83v19.843c-9.443 2.403-16.477 10.906-16.477 21.087 0 12.038 9.791 21.829 21.829 21.829s21.829-9.791 21.829-21.829c0-10.196-7.054-18.712-16.518-21.1v-19.83c0-13.876 11.314-25.167 25.219-25.167h4.907c2.944 0 5.332-2.387 5.332-5.332s-2.387-5.331-5.332-5.331zm-24.271 76.76c0 6.157-5.009 11.166-11.166 11.166s-11.166-5.009-11.166-11.166 5.009-11.166 11.166-11.166 11.166 5.009 11.166 11.166z" fill="#2c9693" data-original="#000000" class=""></path><path d="m289.07 115.476c2.947 0 5.332-2.387 5.332-5.332v-4.907c0-13.905 11.288-25.219 25.164-25.219h19.833c2.389 9.465 10.906 16.518 21.102 16.518 12.033 0 21.827-9.791 21.827-21.829s-9.794-21.829-21.827-21.829c-10.181 0-18.686 7.034-21.09 16.477h-19.846c-19.754 0-35.828 16.097-35.828 35.882v4.907c.001 2.945 2.386 5.332 5.333 5.332zm71.431-51.934c6.154 0 11.163 5.009 11.163 11.166s-5.009 11.166-11.163 11.166c-6.16 0-11.168-5.009-11.168-11.166s5.009-11.166 11.168-11.166z" fill="#2c9693" data-original="#000000" class=""></path><path d="m222.851 401.467c-2.944 0-5.332 2.387-5.332 5.332v4.907c0 13.905-11.291 25.219-25.167 25.219h-19.83c-2.388-9.465-10.904-16.518-21.1-16.518-12.038 0-21.829 9.791-21.829 21.829s9.791 21.829 21.829 21.829c10.181 0 18.684-7.034 21.087-16.477h19.843c19.757 0 35.83-16.097 35.83-35.882v-4.907c0-2.944-2.387-5.332-5.331-5.332zm-71.429 51.935c-6.157 0-11.166-5.009-11.166-11.166s5.009-11.166 11.166-11.166 11.166 5.009 11.166 11.166-5.009 11.166-11.166 11.166z" fill="#2c9693" data-original="#000000" class=""></path><path d="m490.051 236.643c-10.184 0-18.695 7.044-21.091 16.498h-60.993c-2.947 0-5.332 2.387-5.332 5.332 0 2.944 2.385 5.332 5.332 5.332h60.993c2.396 9.453 10.907 16.498 21.091 16.498 12.038 0 21.832-9.791 21.832-21.829s-9.794-21.831-21.832-21.831zm0 32.995c-6.154 0-11.163-5.009-11.163-11.166s5.009-11.166 11.163-11.166c6.16 0 11.168 5.009 11.168 11.166s-5.009 11.166-11.168 11.166z" fill="#2c9693" data-original="#000000" class=""></path><path d="m445.075 341.922v-19.842c0-19.757-16.094-35.83-35.88-35.83h-4.905c-2.947 0-5.332 2.387-5.332 5.332s2.385 5.332 5.332 5.332h4.905c13.902 0 25.216 11.291 25.216 25.167v19.832c-9.463 2.39-16.516 10.904-16.516 21.098 0 12.038 9.794 21.829 21.832 21.829 12.033 0 21.827-9.791 21.827-21.829 0-10.183-7.037-18.687-16.479-21.089zm-5.348 32.254c-6.16 0-11.168-5.009-11.168-11.166s5.009-11.166 11.168-11.166c6.154 0 11.163 5.009 11.163 11.166s-5.008 11.166-11.163 11.166z" fill="#2c9693" data-original="#000000" class=""></path><path d="m261.292 471.471v-60.993c0-2.944-2.387-5.332-5.332-5.332s-5.332 2.387-5.332 5.332v60.993c-9.454 2.395-16.498 10.905-16.498 21.094 0 12.038 9.791 21.829 21.829 21.829s21.832-9.791 21.832-21.829c.001-10.189-7.044-18.698-16.499-21.094zm-5.332 32.26c-6.157 0-11.166-5.009-11.166-11.166s5.009-11.166 11.166-11.166c6.16 0 11.168 5.009 11.168 11.166s-5.008 11.166-11.168 11.166z" fill="#2c9693" data-original="#000000" class=""></path><path d="m360.501 420.407c-10.196 0-18.714 7.054-21.102 16.518h-19.833c-13.876 0-25.164-11.314-25.164-25.219v-4.907c0-2.944-2.385-5.332-5.332-5.332s-5.332 2.387-5.332 5.332v4.907c0 19.786 16.073 35.882 35.828 35.882h19.846c2.404 9.443 10.908 16.477 21.09 16.477 12.033 0 21.827-9.791 21.827-21.829s-9.795-21.829-21.828-21.829zm0 32.995c-6.16 0-11.168-5.009-11.168-11.166s5.009-11.166 11.168-11.166c6.154 0 11.163 5.009 11.163 11.166s-5.008 11.166-11.163 11.166z" fill="#2c9693" data-original="#000000" class=""></path><path d="m250.629 45.473v60.993c0 2.944 2.387 5.332 5.332 5.332s5.332-2.387 5.332-5.332v-60.993c9.454-2.395 16.5-10.905 16.5-21.094 0-12.038-9.794-21.829-21.832-21.829s-21.829 9.791-21.829 21.829c-.001 10.189 7.043 18.698 16.497 21.094zm5.331-32.26c6.16 0 11.168 5.009 11.168 11.166s-5.009 11.166-11.168 11.166c-6.157 0-11.166-5.009-11.166-11.166s5.009-11.166 11.166-11.166z" fill="#2c9693" data-original="#000000" class=""></path><path d="m151.422 96.537c10.196 0 18.712-7.054 21.1-16.518h19.83c13.876 0 25.167 11.314 25.167 25.219v4.907c0 2.944 2.387 5.332 5.332 5.332 2.944 0 5.332-2.387 5.332-5.332v-4.907c0-19.786-16.073-35.882-35.83-35.882h-19.843c-2.403-9.443-10.906-16.477-21.087-16.477-12.038 0-21.829 9.791-21.829 21.829s9.79 21.829 21.828 21.829zm0-32.995c6.157 0 11.166 5.009 11.166 11.166s-5.009 11.166-11.166 11.166-11.166-5.009-11.166-11.166 5.009-11.166 11.166-11.166z" fill="#2c9693" data-original="#000000" class=""></path><path d="m255.975 122.436c-.005 0-.009-.003-.015-.003s-.009.003-.015.003c-75.093.008-136.003 61.145-136.019 136.007 0 .01-.006.019-.006.03s.006.019.006.03c.016 75.424 61.483 135.999 136.019 136.007.005 0 .009.003.015.003s.009-.003.015-.003c75.183-.008 136.022-61.196 136.022-136.036 0-74.988-61.041-136.031-136.022-136.038zm98.817 213.039c-8.862-5.36-18.827-9.989-29.781-13.661 5.292-17.451 8.467-37.131 8.931-58.01h47.256c-1.134 26.951-10.822 51.713-26.406 71.671zm-224.067-71.671h47.248c.445 21.043 3.508 40.714 8.655 58.094-10.847 3.656-20.71 8.261-29.497 13.577-15.584-19.958-25.272-44.72-26.406-71.671zm26.406-82.335c8.787 5.316 18.65 9.921 29.497 13.577-5.147 17.38-8.21 37.051-8.655 58.094h-47.248c1.134-26.951 10.822-51.713 26.406-71.671zm104.161 24.204c18.851-.419 37.091-2.997 53.719-7.555 4.879 16.451 7.823 35.145 8.273 55.023h-61.992zm0-10.661v-61.485c20.914 3.063 39.177 23.933 50.377 54.476-15.554 4.212-32.656 6.599-50.377 7.009zm-10.663-61.485v61.485c-17.723-.41-34.826-2.797-50.38-7.009 11.201-30.543 29.464-51.413 50.38-54.476zm0 72.146v47.467h-61.994c.45-19.878 3.395-38.571 8.274-55.023 16.626 4.558 34.867 7.136 53.72 7.556zm-61.995 58.131h61.994v47.467c-18.853.419-37.094 2.997-53.721 7.555-4.878-16.451-7.823-35.145-8.273-55.022zm61.995 58.128v61.485c-20.916-3.063-39.179-23.932-50.38-54.476 15.554-4.212 32.657-6.599 50.38-7.009zm10.663 61.485v-61.485c17.721.41 34.823 2.796 50.377 7.009-11.2 30.543-29.463 51.413-50.377 54.476zm0-72.146v-47.467h61.992c-.45 19.878-3.395 38.571-8.273 55.023-16.628-4.559-34.868-7.137-53.719-7.556zm72.653-58.131c-.445-21.043-3.508-40.714-8.654-58.094 10.848-3.655 20.712-8.261 29.501-13.577 15.585 19.957 25.273 44.72 26.407 71.671zm13.843-79.904c-7.751 4.534-16.364 8.505-25.821 11.7-6.976-19.241-16.649-35.081-28.182-45.993 20.895 6.627 39.424 18.597 54.003 34.293zm-129.653-34.293c-11.533 10.911-21.206 26.751-28.182 45.992-9.456-3.194-18.068-7.165-25.818-11.7 14.577-15.695 33.106-27.664 54-34.292zm-54.001 204.766c7.75-4.534 16.362-8.505 25.818-11.7 6.977 19.241 16.65 35.08 28.182 45.992-20.893-6.628-39.422-18.598-54-34.292zm128.756 34.579c11.685-10.982 21.574-27.017 28.734-46.398 9.59 3.216 18.318 7.229 26.164 11.818-14.787 15.92-33.636 28.013-54.898 34.58z" fill="#2c9693" data-original="#000000" class=""></path></g></g></g></g></svg>