<svg xmlns="http://www.w3.org/2000/svg" version="1.1" xmlns:xlink="http://www.w3.org/1999/xlink" xmlns:svgjs="http://svgjs.com/svgjs" width="512" height="512" x="0" y="0" viewBox="0 0 514.11 514.11" style="enable-background:new 0 0 512 512" xml:space="preserve" class=""><g><g xmlns="http://www.w3.org/2000/svg" id="_x32_1_Peer_to_peer"><g><g><path d="m190.061 223.021v-22.446c0-38.837-31.595-70.432-70.432-70.432h-2.452v-7.142c14.211-7.832 23.868-22.953 23.868-40.294v-21.605c16.667-10.358 9.942-35.897-9.573-36.763-36.322-1.614-63.704-8.474-83.709-20.975-3.571-2.228-8.156.364-8.156 4.522v36.33c0 7.14 3.808 13.366 9.468 16.885v21.606c0 17.332 9.647 32.446 23.847 40.281v7.155h-2.452c-38.837 0-70.432 31.595-70.432 70.432v22.446c0 2.944 2.387 5.332 5.332 5.332h179.359c2.945 0 5.332-2.388 5.332-5.332zm-139.791-205.989c20.603 10.575 47.137 16.466 80.728 17.961 12.034.536 11.537 18.487-.409 18.487h-71.056c-5.108 0-9.263-4.155-9.263-9.263zm9.469 65.675v-18.565h70.643v18.565c0 19.476-15.844 35.32-35.32 35.32s-35.323-15.844-35.323-35.32zm35.322 45.983c3.96 0 7.783-.556 11.452-1.502v11.166c0 6.321-5.144 11.463-11.465 11.463-6.384 0-11.463-5.108-11.463-11.463v-11.172c3.677.95 7.508 1.508 11.476 1.508zm84.337 88.999h-168.696v-17.115c0-32.956 26.812-59.768 59.768-59.768h2.691c1.29 11.749 10.953 19.674 21.888 19.674 11.362 0 20.642-8.639 21.881-19.674h2.7c32.956 0 59.768 26.812 59.768 59.768z" fill="#2c9693" data-original="#000000" class=""></path><path d="m441.451 416.241h-2.452v-7.391c14.21-8.126 23.831-23.813 23.831-41.584v-11.046c0-12.363-10.057-22.423-22.42-22.423h-47.129c-12.363 0-22.423 10.059-22.423 22.423v12.569c0 17.182 9.358 32.294 23.886 40.262v7.189h-2.452c-38.837 0-70.432 31.595-70.432 70.432v22.394c0 2.944 2.387 5.332 5.332 5.332h179.359c2.944 0 5.332-2.387 5.332-5.332v-22.394c-.001-38.837-31.595-70.431-70.432-70.431zm-59.93-47.452v-12.569c0-6.485 5.274-11.759 11.759-11.759h47.129c6.482 0 11.757 5.274 11.757 11.759v11.046c0 19.218-14.303 35.346-32.56 36.718-6.074.47-12.033-.667-17.408-3.126-.033-.014-.063-.028-.096-.042-12.495-5.76-20.581-18.034-20.581-32.027zm35.396 45.957c3.897 0 7.499-.458 11.418-1.495v11.149c0 6.321-5.142 11.463-11.463 11.463-6.369 0-11.465-5.089-11.465-11.463v-11.161c3.734.96 7.589 1.507 11.51 1.507zm84.302 88.989h-168.696v-17.063c0-32.956 26.812-59.768 59.768-59.768h2.696c1.309 11.664 10.916 19.622 21.885 19.622 11.342 0 20.611-8.612 21.873-19.622h2.706c32.956 0 59.768 26.812 59.768 59.768z" fill="#2c9693" data-original="#000000" class=""></path><path d="m343.093 267.093c0-38.4-31.227-69.64-69.609-69.64-38.384 0-69.612 31.24-69.612 69.64 0 38.382 31.227 69.609 69.612 69.609 38.381 0 69.609-31.227 69.609-69.609zm-69.609 58.946c-32.503 0-58.948-26.442-58.948-58.946 0-32.519 26.445-58.977 58.948-58.977s58.946 26.458 58.946 58.977c-.001 32.504-26.443 58.946-58.946 58.946z" fill="#2c9693" data-original="#000000" class=""></path><path d="m299.353 253.165c0-8.488-5.557-15.628-13.197-18.182v-3.543c0-2.944-2.387-5.332-5.332-5.332s-5.332 2.387-5.332 5.332v2.473h-2.747v-2.473c0-2.944-2.387-5.332-5.332-5.332-2.944 0-5.332 2.387-5.332 5.332v2.473c-.677 0-9.718 0-9.14 0-2.944 0-5.332 2.387-5.332 5.332s2.387 5.332 5.332 5.332h.594c0 .688 0 46.899 0 45.018h-.594c-2.944 0-5.332 2.387-5.332 5.332 0 2.944 2.387 5.332 5.332 5.332.548 0 9.677 0 9.14 0v2.458c0 2.944 2.387 5.332 5.332 5.332 2.944 0 5.332-2.387 5.332-5.332v-2.458h2.747v2.458c0 2.944 2.387 5.332 5.332 5.332s5.332-2.387 5.332-5.332v-3.528c7.64-2.554 13.197-9.694 13.197-18.182 0-5.485-2.332-10.411-6.024-13.92 3.692-3.511 6.024-8.437 6.024-13.922zm-10.663 27.841c0 4.736-3.853 8.589-8.589 8.589h-15.901v-17.177h15.901c4.736-.001 8.589 3.852 8.589 8.588zm-24.49-19.252v-17.177c3.102 0 16.691 0 15.901 0 4.736 0 8.589 3.853 8.589 8.589s-3.853 8.589-8.589 8.589h-15.901z" fill="#2c9693" data-original="#000000" class=""></path><path d="m296.123 155.39c2.639 3.859 8.654 2.688 9.622-1.913l3.783-18.078c49.771 11.731 92.102 43.916 116.709 88.952 2.642 4.842 10.099 2.96 10.01-2.642-1.093-67.982-49.092-127.498-114.905-143.511l3.751-18.106c.954-4.596-4.099-8.099-8.065-5.592l-58.069 36.66c-2.551 1.612-3.262 5.024-1.557 7.516zm15.982-85.172-2.268 10.95c-.603 2.893 1.268 5.716 4.147 6.305 56.285 11.562 99.509 57.128 109.451 112.359-27.825-39.019-69.396-66.269-116.954-76.021-2.808-.59-5.679 1.21-6.29 4.129l-2.322 11.098-28.546-41.813z" fill="#2c9693" data-original="#000000" class=""></path><path d="m199.537 370.122c-1.656-4.458-7.801-4.609-9.799-.461l-8.029 16.633c-45.481-23.37-78.815-64.806-91.85-114.442-1.345-5.133-9.065-5.413-10.351.154-15.316 66.245 16.938 135.568 76.958 166.962l-8.003 16.669c-2.039 4.239 2.034 8.843 6.482 7.368l65.186-21.598c2.863-.949 4.371-4.084 3.322-6.917zm-36.028 78.812 4.84-10.08c1.274-2.646.16-5.841-2.507-7.118-51.846-24.776-82.821-79.416-79.171-135.415 17.612 44.572 51.393 81.035 95.203 101.953 2.645 1.263 5.821.154 7.097-2.494l4.931-10.213 17.633 47.457z" fill="#2c9693" data-original="#000000" class=""></path><path d="m359.533 329.408c-.666 2.869 1.119 5.733 3.988 6.399 2.851.651 5.73-1.119 6.399-3.988 5.09-21.931 24.396-37.246 46.952-37.246 22.561 0 41.867 15.336 46.949 37.299.665 2.874 3.531 4.652 6.396 3.991 2.869-.664 4.655-3.528 3.991-6.396-6.206-26.823-29.785-45.556-57.337-45.556-27.542-.002-51.121 18.708-57.338 45.497z" fill="#2c9693" data-original="#000000" class=""></path></g></g></g></g></svg>